<?xml version="1.0" encoding="UTF-8" standalone="no"?>
<svg
   xmlns:dc="http://purl.org/dc/elements/1.1/"
   xmlns:cc="http://creativecommons.org/ns#"
   xmlns:rdf="http://www.w3.org/1999/02/22-rdf-syntax-ns#"
   xmlns:svg="http://www.w3.org/2000/svg"
   xmlns="http://www.w3.org/2000/svg"
   xmlns:sodipodi="http://sodipodi.sourceforge.net/DTD/sodipodi-0.dtd"
   xmlns:inkscape="http://www.inkscape.org/namespaces/inkscape"
   version="1.0"
   width="1600"
   height="1200"
   viewBox="0 0 16000 12000"
   preserveAspectRatio="xMidYMid meet"
   id="svg20"
   sodipodi:docname="bike_road.svg"
   inkscape:version="0.92.3 (2405546, 2018-03-11)">
  <metadata
     id="metadata26">
    <rdf:RDF>
      <cc:Work
         rdf:about="">
        <dc:format>image/svg+xml</dc:format>
        <dc:type
           rdf:resource="http://purl.org/dc/dcmitype/StillImage" />
        <dc:title></dc:title>
      </cc:Work>
    </rdf:RDF>
  </metadata>
  <defs
     id="defs24" />
  <sodipodi:namedview
     pagecolor="#ffffff"
     bordercolor="#666666"
     borderopacity="1"
     objecttolerance="10"
     gridtolerance="10"
     guidetolerance="10"
     inkscape:pageopacity="0"
     inkscape:pageshadow="2"
     inkscape:window-width="1920"
     inkscape:window-height="1023"
     id="namedview22"
     showgrid="false"
     inkscape:zoom="0.52325902"
     inkscape:cx="883.74615"
     inkscape:cy="620.53172"
     inkscape:window-x="0"
     inkscape:window-y="0"
     inkscape:window-maximized="1"
     inkscape:current-layer="svg20">
    <inkscape:grid
       type="xygrid"
       id="grid36" />
  </sodipodi:namedview>
  <g
     id="layer101"
     style="fill:#85c131;stroke:none"
     transform="matrix(1.1869436,0,0,1.1869436,-1414.2136,-2.9478942)">
    <path
       d="m 625,10103 c -80,-11 -271,-57 -368,-89 -60,-19 -141,-38 -180,-42 L 5,9965 2,9694 0,9422 63,9411 c 35,-6 112,-30 173,-52 196,-74 129,-71 1569,-76 1313,-4 1591,1 1710,32 204,53 327,178 355,362 12,78 3,159 -24,212 -26,50 -92,97 -189,134 -127,49 -194,64 -322,77 -105,10 -2641,13 -2710,3 z"
       id="path11"
       inkscape:connector-curvature="0" />
    <path
       d="m 6639,10100 c -107,-10 -323,-62 -401,-97 -120,-54 -163,-141 -156,-317 10,-210 94,-324 274,-371 117,-30 417,-36 1764,-33 1484,4 1358,-2 1525,78 99,48 173,118 218,209 28,57 32,77 35,161 3,88 1,99 -25,150 -36,71 -76,97 -231,155 -218,81 -91,75 -1582,73 -734,0 -1374,-4 -1421,-8 z"
       id="path13"
       inkscape:connector-curvature="0" />
    <path
       d="m 12690,10099 c -113,-13 -340,-57 -412,-79 -34,-11 -80,-33 -100,-50 -117,-97 -111,-438 11,-573 55,-61 96,-75 292,-94 157,-16 310,-18 1549,-18 h 1375 l 104,23 c 116,26 176,53 271,122 79,58 113,75 173,91 l 47,11 v 204 204 h -33 c -42,0 -135,27 -268,78 -58,23 -162,53 -231,67 l -126,25 -1288,-1 c -709,-1 -1323,-5 -1364,-10 z"
       id="path15"
       inkscape:connector-curvature="0" />
    <path
       d="m 11615,7970 c -195,-8 -238,-21 -420,-121 -153,-84 -243,-124 -393,-178 -200,-72 -307,-136 -442,-266 -47,-45 -117,-106 -157,-134 -88,-63 -133,-113 -200,-222 -28,-46 -99,-140 -158,-209 -165,-193 -182,-232 -289,-635 -30,-115 -67,-244 -81,-285 -52,-150 -66,-228 -72,-395 -7,-200 8,-311 78,-571 28,-104 69,-263 91,-354 84,-345 114,-409 264,-573 57,-61 135,-159 175,-217 94,-137 99,-142 204,-213 50,-34 128,-100 175,-149 47,-48 146,-139 220,-201 120,-101 139,-121 170,-182 32,-62 35,-75 34,-149 -1,-45 -14,-137 -28,-206 -54,-257 -103,-351 -209,-404 -49,-24 -74,-30 -156,-34 -189,-9 -262,36 -346,215 -26,54 -62,130 -81,169 -25,54 -60,99 -141,185 -100,107 -114,126 -188,269 -98,191 -150,268 -260,390 -75,82 -95,114 -154,235 -73,148 -113,208 -231,345 -87,101 -125,159 -179,272 -53,111 -123,216 -204,306 -87,97 -127,159 -193,298 -65,138 -96,185 -191,287 -100,106 -140,162 -218,300 -124,219 -248,315 -495,383 -89,25 -304,24 -540,-1 -120,-13 -257,-20 -390,-20 -236,0 -292,11 -391,77 -78,52 -137,134 -222,306 -61,124 -82,155 -156,237 -47,51 -110,133 -140,182 -197,320 -279,410 -494,543 -76,47 -170,111 -210,143 -131,106 -208,152 -323,190 -131,43 -228,60 -484,86 -498,51 -682,53 -971,16 -378,-50 -510,-100 -769,-290 -60,-44 -152,-100 -215,-130 -132,-63 -175,-96 -253,-195 -33,-41 -101,-120 -153,-175 -135,-144 -164,-181 -205,-270 -20,-44 -54,-118 -76,-165 -22,-47 -73,-135 -114,-197 -171,-256 -203,-388 -225,-902 -13,-296 -7,-411 33,-646 35,-211 78,-319 193,-495 73,-110 98,-159 164,-316 65,-153 92,-192 215,-312 58,-56 132,-138 165,-181 79,-104 153,-168 248,-216 125,-63 220,-121 319,-195 169,-124 262,-149 749,-205 171,-19 319,-37 330,-41 11,-3 171,-9 355,-14 367,-9 384,-11 518,-75 131,-62 252,-211 320,-393 30,-83 42,-266 22,-364 -26,-137 -103,-233 -249,-312 -181,-99 -222,-190 -191,-432 28,-229 78,-299 242,-340 91,-22 452,-33 848,-25 l 335,6 57,28 c 32,16 74,47 94,70 46,54 115,196 155,319 73,228 139,273 430,297 79,7 640,11 1485,11 1510,1 1413,5 1512,-67 140,-103 295,-229 316,-257 43,-57 59,-100 64,-171 3,-61 1,-74 -20,-105 -59,-86 -162,-109 -548,-120 -242,-6 -297,-11 -365,-29 -134,-36 -199,-89 -227,-185 -20,-68 -14,-248 11,-354 12,-52 24,-127 28,-168 l 6,-74 h 1127 1127 l 6,68 c 3,37 22,119 42,182 39,123 44,164 65,535 7,124 24,268 55,460 68,418 98,531 225,828 43,101 85,220 110,317 77,288 110,355 197,403 80,43 155,58 348,68 327,17 422,42 660,175 86,48 201,102 270,127 277,101 372,160 556,345 74,75 174,173 221,217 105,99 145,160 264,402 52,105 122,234 156,285 34,51 74,120 90,154 37,78 74,228 93,368 33,257 28,801 -10,1007 -38,202 -74,294 -171,442 -37,55 -97,164 -134,241 -77,161 -154,297 -206,366 -55,72 -471,470 -537,514 -91,60 -212,118 -332,160 -61,21 -175,73 -255,114 -269,141 -343,169 -504,191 -82,12 -407,12 -671,1 z m 380,-886 c 97,-18 226,-61 339,-113 46,-22 164,-69 262,-106 225,-85 285,-112 373,-169 90,-58 131,-100 255,-266 150,-199 307,-470 341,-587 57,-196 62,-638 9,-847 -29,-115 -139,-324 -273,-516 -37,-52 -91,-135 -121,-183 -30,-49 -73,-106 -96,-127 -81,-74 -489,-298 -698,-382 -150,-60 -244,1 -296,195 -31,114 -37,266 -15,402 27,175 79,365 140,513 96,231 118,300 123,385 10,160 -33,272 -130,336 -88,60 -174,85 -288,85 -89,1 -101,-2 -163,-32 -85,-42 -116,-83 -226,-297 -179,-347 -228,-498 -301,-927 -12,-66 -28,-138 -37,-161 -61,-158 -204,-228 -329,-161 -57,30 -187,138 -261,217 -101,107 -142,189 -219,437 -91,298 -96,320 -101,500 -8,240 14,373 117,730 28,96 69,213 92,260 35,74 55,99 148,190 59,58 135,139 168,181 76,96 123,130 307,221 83,41 202,102 265,136 131,69 195,90 312,101 99,10 194,5 303,-15 z M 4123,6870 c 139,-12 222,-37 383,-116 98,-47 126,-67 225,-160 63,-59 157,-135 209,-169 116,-76 154,-117 177,-193 20,-67 23,-235 5,-297 -20,-70 -65,-130 -116,-155 -70,-33 -405,-79 -951,-130 -258,-24 -338,-39 -422,-80 -148,-73 -278,-294 -277,-475 0,-82 13,-111 100,-225 64,-84 87,-132 144,-295 56,-163 80,-210 182,-347 49,-68 100,-143 113,-168 56,-111 81,-258 54,-327 -14,-38 -55,-79 -108,-111 -68,-40 -157,-41 -376,-3 -315,55 -408,89 -560,210 -50,40 -133,98 -187,131 -197,122 -271,196 -346,345 -22,44 -75,127 -117,185 -122,165 -166,280 -196,505 -27,210 11,682 64,798 13,29 60,94 104,145 53,63 100,132 144,213 76,142 141,219 268,314 50,36 117,98 150,137 78,92 143,139 227,166 82,26 374,76 529,91 61,6 124,13 140,15 67,7 327,5 438,-4 z m 975,-2044 c 96,-66 142,-258 93,-387 -29,-76 -89,-160 -132,-183 -56,-31 -89,-18 -242,97 -169,127 -192,156 -192,242 0,51 5,70 30,110 63,102 178,157 321,152 71,-2 86,-6 122,-31 z m 1252,-312 c 15,-44 6,-150 -16,-203 -34,-82 -93,-106 -134,-53 -19,23 -21,36 -17,82 10,104 74,210 127,210 24,0 30,-6 40,-36 z m 1303,-134 c 136,-20 225,-65 272,-140 13,-21 53,-105 89,-187 76,-172 111,-227 238,-381 69,-83 116,-154 174,-260 81,-150 134,-225 205,-289 60,-54 121,-145 181,-268 51,-104 53,-113 53,-190 0,-67 -5,-90 -28,-140 -49,-104 -103,-145 -218,-165 -46,-8 -342,-10 -1009,-8 -1038,4 -1006,3 -1080,65 -71,59 -113,208 -91,316 15,70 77,195 128,259 150,185 169,216 265,423 63,137 123,234 232,375 81,104 112,163 172,316 79,206 108,245 203,270 57,16 125,17 214,4 z M 5834,3668 c 34,-48 12,-161 -38,-194 -25,-16 -28,-16 -46,1 -24,22 -26,65 -5,127 16,45 47,88 65,88 5,0 16,-10 24,-22 z"
       id="path17"
       inkscape:connector-curvature="0" />
  </g>
</svg>
