<svg id="Layer_1" data-name="Layer 1" xmlns="http://www.w3.org/2000/svg" viewBox="0 0 264.61 235.58"><defs><style>.cls-1{fill:#86c232;}.cls-2{fill:none;stroke:#86c232;stroke-linecap:round;stroke-miterlimit:10;stroke-width:11px;}</style></defs><title>bike_downhill</title><path class="cls-1" d="M241.86,110.14a49.09,49.09,0,0,0-5.23-2.89l12.29-42.08a8,8,0,0,0,2-14.4L223.11,33a8,8,0,0,0-8.61,13.48l17.61,11.25-14.44,6.83a7.07,7.07,0,0,0-.93-.68L156,26.31a8,8,0,0,0,3.32-14.68L143.05,1.26a8,8,0,0,0-8.61,13.48l1.21.77a8,8,0,0,0-.37,2.23l-.14,6.19-16.89,10a49.31,49.31,0,1,0-3.11,66.62L136.55,116l.38.26a8,8,0,0,0,7.72.49L228.8,77l-7.52,25.75a49.3,49.3,0,1,0,20.58,7.39ZM134.71,42.76,133.56,94.1l-9-6.54a49.32,49.32,0,0,0,1.83-39.86ZM52.34,47.6a33.28,33.28,0,0,1,51.84-5.39L76.34,58.64A8,8,0,0,0,75.73,72l26.2,19A33.31,33.31,0,0,1,52.34,47.6ZM95,66.21,112.3,56a33.3,33.3,0,0,1-1,22Zm54.5,30.57,1.23-54.88L200.5,72.68Zm47.88,83a33.3,33.3,0,0,1,19.31-61.34l-9.06,31A8,8,0,0,0,223,153.94l9.06-31c.4.23.8.47,1.19.72a33.31,33.31,0,0,1-35.86,56.14Zm0,0"/><line class="cls-2" x1="5.5" y1="93.88" x2="219.08" y2="230.08"/></svg>