<?xml version="1.0" encoding="UTF-8" standalone="no"?>
<svg
   xmlns:dc="http://purl.org/dc/elements/1.1/"
   xmlns:cc="http://creativecommons.org/ns#"
   xmlns:rdf="http://www.w3.org/1999/02/22-rdf-syntax-ns#"
   xmlns:svg="http://www.w3.org/2000/svg"
   xmlns="http://www.w3.org/2000/svg"
   xmlns:sodipodi="http://sodipodi.sourceforge.net/DTD/sodipodi-0.dtd"
   xmlns:inkscape="http://www.inkscape.org/namespaces/inkscape"
   version="1.0"
   width="600"
   height="600"
   viewBox="0 0 600 600"
   preserveAspectRatio="xMidYMid meet"
   id="svg7"
   sodipodi:docname="person_icon.svg"
   inkscape:version="0.92.3 (unknown)">
  <metadata
     id="metadata13">
    <rdf:RDF>
      <cc:Work
         rdf:about="">
        <dc:format>image/svg+xml</dc:format>
        <dc:type
           rdf:resource="http://purl.org/dc/dcmitype/StillImage" />
        <dc:title></dc:title>
      </cc:Work>
    </rdf:RDF>
  </metadata>
  <defs
     id="defs11" />
  <sodipodi:namedview
     pagecolor="#ffffff"
     bordercolor="#666666"
     borderopacity="1"
     objecttolerance="10"
     gridtolerance="10"
     guidetolerance="10"
     inkscape:pageopacity="0"
     inkscape:pageshadow="2"
     inkscape:window-width="1920"
     inkscape:window-height="1023"
     id="namedview9"
     showgrid="false"
     inkscape:zoom="1.1125147"
     inkscape:cx="403.71879"
     inkscape:cy="317.49906"
     inkscape:window-x="0"
     inkscape:window-y="0"
     inkscape:window-maximized="1"
     inkscape:current-layer="svg7" />
  <g
     id="layer101"
     style="fill:#b0b0b0;stroke:none"
     transform="matrix(0.04365889,0,0,0.04365889,39.766272,33.474977)">
    <path
       d="M 0,10511 V 9147.841 c 343.42038,-434.0071 866.02556,-819.5032 1358.5136,-1150.5764 395.0792,-265.5905 823.208,-486.2171 1266.1098,-660.7561 448.7912,-176.8599 921.1907,-294.1252 1394.8003,-385.7054 700.018,-135.3601 1412.5518,-246.9356 2125.4985,-239.5501 777.9444,8.0589 1561.0762,111.0675 2313.3625,309.3797 608.9004,160.5138 1198.3481,406.2123 1752.5523,705.1808 483.77,260.9723 1016.424,507.0742 1354.562,940.4364 251.183,321.9197 470.089,702.5185 432.965,1145.8918 2.225,729.2913 2.769,1458.5633 1.636,2187.8583 H 0 Z m 9914,169 c 554.281,-71.83 368.024,-822.6601 191.304,-1179.6811 -255.8898,-516.9658 -978.8718,-633.5953 -1526.2363,-815.599 -694.5289,-230.9372 -1439.7671,-292.6122 -2170.6859,-330.8229 -817.2011,-42.7214 -1649.8663,-45.817 -2452.2652,114.8026 -596.2596,119.3558 -1284.3442,193.0868 -1714.6972,622.7002 -340.6252,340.0398 -889.2569,890.5891 -495.2022,1356.3362 448.9513,424.951 1102.6817,195.241 1654.6728,242.052 2171.0065,12.188 4342.2365,25.325 6513.11,-9.788 z"
       id="path2"
       inkscape:connector-curvature="0"
       sodipodi:nodetypes="ccaaaaaaacccccaaaaaccc" />
  </g>
  <path
     style="fill:#b0b0b0;fill-opacity:1;fill-rule:nonzero;stroke-width:0.43658894"
     d="M 301.99739,33.474542 A 128.47925,128.47925 0 0 0 173.51831,161.95449 128.47925,128.47925 0 0 0 301.99739,290.43359 128.47925,128.47925 0 0 0 430.47647,161.95449 128.47925,128.47925 0 0 0 301.99739,33.474542 Z m -0.83309,65.48835 A 64.933362,64.933362 0 0 1 366.09836,163.89697 64.933362,64.933362 0 0 1 301.1643,228.8302 64.933362,64.933362 0 0 1 236.23105,163.89697 64.933362,64.933362 0 0 1 301.1643,98.962892 Z"
     id="path25"
     inkscape:connector-curvature="0" />
</svg>
